<?xml version="1.0" standalone="no"?>
<!DOCTYPE svg PUBLIC "-//W3C//DTD SVG 20010904//EN"
 "http://www.w3.org/TR/2001/REC-SVG-20010904/DTD/svg10.dtd">
<svg version="1.0" xmlns="http://www.w3.org/2000/svg"
 width="500.000000pt" height="500.000000pt" viewBox="0 0 500.000000 500.000000"
 preserveAspectRatio="xMidYMid meet">

<g transform="translate(0.000000,500.000000) scale(0.100000,-0.100000)"
fill="#000000" stroke="none">
<path d="M0 2500 l0 -2500 2500 0 2500 0 0 2500 0 2500 -2500 0 -2500 0 0
-2500z m3612 1372 c20 -13 47 -40 60 -60 l23 -37 0 -1281 0 -1281 -29 -37
c-15 -21 -42 -46 -60 -57 -30 -18 -66 -19 -1160 -19 l-1129 0 -43 25 c-28 16
-49 39 -63 68 -21 43 -21 49 -21 989 l0 946 27 51 c28 50 567 641 622 680 15
11 42 24 61 29 23 7 330 10 855 9 l820 -2 37 -23z"/>
<path d="M1959 3463 c-72 -75 -278 -296 -367 -395 l-42 -48 0 -785 0 -785 895
0 895 0 0 1045 0 1045 -653 0 -652 0 -76 -77z m412 -156 c64 -42 69 -65 69
-312 0 -250 -5 -272 -76 -312 -37 -22 -50 -23 -262 -23 -204 0 -226 2 -262 20
-77 39 -101 139 -51 208 36 52 74 62 225 62 l136 0 0 135 c0 144 6 170 52 211
29 27 44 32 94 33 27 1 53 -7 75 -22z"/>
</g>
</svg>
