<?xml version="1.0" standalone="no"?>
<!DOCTYPE svg PUBLIC "-//W3C//DTD SVG 20010904//EN"
 "http://www.w3.org/TR/2001/REC-SVG-20010904/DTD/svg10.dtd">
<svg version="1.0" xmlns="http://www.w3.org/2000/svg"
 width="256.000000pt" height="256.000000pt" viewBox="0 0 256.000000 256.000000"
 preserveAspectRatio="xMidYMid meet">

<g transform="translate(0.000000,256.000000) scale(0.100000,-0.100000)"
fill="#000000" stroke="none">
<path d="M735 2541 c-272 -72 -504 -259 -628 -506 -160 -321 -130 -706 78
-1000 61 -86 188 -204 285 -263 377 -232 870 -173 1186 142 121 122 209 276
255 446 33 123 33 357 0 480 -77 288 -268 516 -535 640 -135 63 -224 80 -410
79 -123 0 -178 -4 -231 -18z"/>
<path d="M2037 2537 c10 -13 40 -53 67 -88 242 -320 334 -741 251 -1144 -35
-166 -117 -366 -206 -496 l-38 -57 107 -104 c59 -57 157 -152 218 -211 60 -59
113 -107 117 -107 4 0 7 502 7 1115 l0 1115 -271 0 -271 0 19 -23z"/>
<path d="M0 275 l0 -275 1122 0 1123 0 -25 24 c-224 217 -425 406 -431 406 -5
0 -32 -15 -61 -34 -129 -82 -272 -142 -432 -182 -135 -34 -391 -44 -541 -20
-257 39 -487 141 -687 302 l-68 55 0 -276z"/>
<path d="M2400 155 l-155 -155 158 0 157 0 0 155 c0 85 -1 155 -3 155 -1 0
-72 -70 -157 -155z"/>
</g>
</svg>
